<svg width="28" height="20" viewBox="0 0 28 20" fill="none" xmlns="http://www.w3.org/2000/svg">
<path d="M0 3.33333C0 1.49238 1.567 0 3.5 0H24.5C26.433 0 28 1.49238 28 3.33333V16.6667C28 18.5076 26.433 20 24.5 20H3.5C1.567 20 0 18.5076 0 16.6667V3.33333ZM3.5 1.66667C2.5335 1.66667 1.75 2.41286 1.75 3.33333V3.69484L14 10.6948L26.25 3.69484V3.33333C26.25 2.41286 25.4665 1.66667 24.5 1.66667H3.5ZM26.25 5.63849L18.0109 10.3466L26.25 15.1754V5.63849ZM26.1909 17.0977L16.3202 11.3127L14 12.6385L11.6798 11.3127L1.80909 17.0977C2.00855 17.8092 2.69001 18.3333 3.5 18.3333H24.5C25.31 18.3333 25.9915 17.8092 26.1909 17.0977ZM1.75 15.1754L9.98913 10.3466L1.75 5.63849V15.1754Z" fill="white"/>
</svg>
