<svg width="38" height="38" viewBox="0 0 50 50" fill="#238c9a" xmlns="http://www.w3.org/2000/svg">
<path d="M0 12.5C0 9.04822 2.79822 6.25 6.25 6.25H43.75C47.2018 6.25 50 9.04822 50 12.5V37.5C50 40.9518 47.2018 43.75 43.75 43.75H6.25C2.79822 43.75 0 40.9518 0 37.5V12.5ZM6.25 9.375C4.52411 9.375 3.125 10.7741 3.125 12.5V13.1778L25 26.3028L46.875 13.1778V12.5C46.875 10.7741 45.4759 9.375 43.75 9.375H6.25ZM46.875 16.8222L32.1623 25.6498L46.875 34.7038V16.8222ZM46.7695 38.3082L29.1432 27.4612L25 29.9472L20.8568 27.4612L3.23051 38.3082C3.5867 39.6423 4.80359 40.625 6.25 40.625H43.75C45.1964 40.625 46.4133 39.6423 46.7695 38.3082ZM3.125 34.7038L17.8377 25.6498L3.125 16.8222V34.7038Z" fill="#238c9a"/>
</svg>
