<svg width="200" height="45" viewBox="0 0 244 45" fill="none" xmlns="http://www.w3.org/2000/svg">
<path d="M46.992 23.528C47.0347 23.8693 47.056 24.232 47.056 24.616C47.056 24.9573 47.056 25.2987 47.056 25.64C47.056 27.4747 46.8853 29.288 46.544 31.08C46.2027 32.8293 45.6693 34.2587 44.944 35.368C44.6453 35.7947 44.2613 36.4347 43.792 37.288C43.3227 38.1413 42.8533 38.76 42.384 39.144C40.848 40.424 38.992 41.4053 36.816 42.088C34.6827 42.8133 32.4853 43.3253 30.224 43.624C27.9627 43.9227 25.8933 44.072 24.016 44.072C22.0533 44.072 20.2187 43.6667 18.512 42.856C16.848 42.088 15.2053 41.256 13.584 40.36C12.7307 41.1707 11.7707 41.832 10.704 42.344C9.68 42.856 8.57067 43.112 7.376 43.112C6.18133 43.112 5.008 43.0267 3.856 42.856C2.74667 42.728 1.82933 42.3653 1.104 41.768C0.378667 41.1707 0.0159999 40.2533 0.0159999 39.016C0.0159999 38.3333 0.421333 37.6933 1.232 37.096C2.04267 36.456 2.98133 35.9867 4.048 35.688C4.38933 35.6027 4.752 35.5387 5.136 35.496C5.52 35.4107 5.968 35.368 6.48 35.368C6.82133 35.368 7.16267 35.3893 7.504 35.432C7.84533 35.4747 8.22933 35.56 8.656 35.688C9.424 35.9013 10.1707 36.2 10.896 36.584C11.664 36.9253 12.4107 37.3093 13.136 37.736C13.9893 36.8827 14.736 35.88 15.376 34.728C16.0587 33.576 16.656 32.36 17.168 31.08C15.5467 30.6107 14.0107 29.8213 12.56 28.712C11.1093 27.6027 9.91467 26.3013 8.976 24.808C8.08 23.272 7.632 21.6933 7.632 20.072C7.632 17.9813 8.12267 15.8907 9.104 13.8C10.0853 11.7093 11.3867 9.78933 13.008 8.04C14.672 6.29066 16.528 4.904 18.576 3.88C20.624 2.81333 22.736 2.28 24.912 2.28C28.24 2.28 31.2907 2.83466 34.064 3.944C36.88 5.01066 39.2907 6.67466 41.296 8.936C43.344 11.1547 44.8373 13.9707 45.776 17.384C45.9467 17.9387 46.16 18.7707 46.416 19.88C46.672 20.9467 46.864 22.1627 46.992 23.528ZM43.088 25.448C43.1307 24.8507 43.152 24.2747 43.152 23.72C43.1947 23.1227 43.216 22.5467 43.216 21.992C43.216 20.9253 43.152 19.944 43.024 19.048C42.896 18.152 42.64 17.4053 42.256 16.808C41.9147 16.2533 41.6587 15.6987 41.488 15.144C41.3173 14.5893 41.104 13.9707 40.848 13.288C40.592 12.6053 40.1227 11.8373 39.44 10.984C38.5013 9.74667 37.4347 8.76533 36.24 8.04C35.088 7.31467 34.0213 6.54667 33.04 5.736C32.1013 4.92533 31.0347 4.37066 29.84 4.072C28.6453 3.73066 27.1947 3.56 25.488 3.56C23.6107 3.56 21.7973 4.072 20.048 5.096C18.3413 6.07733 16.8053 7.4 15.44 9.064C14.1173 10.728 13.0507 12.5413 12.24 14.504C11.472 16.424 11.088 18.3227 11.088 20.2C11.088 21.48 11.28 22.8453 11.664 24.296C12.048 25.7467 12.7733 26.9627 13.84 27.944C14.352 28.4133 14.928 28.7973 15.568 29.096C16.2507 29.3947 16.9333 29.6293 17.616 29.8C17.9573 28.8187 18.256 27.8587 18.512 26.92C18.768 25.9387 19.0027 25.0213 19.216 24.168C19.6 22.76 20.2187 21.096 21.072 19.176C21.968 17.2133 22.9707 15.4427 24.08 13.864C23.9093 13.8213 23.7387 13.8 23.568 13.8C23.3973 13.7573 23.2267 13.736 23.056 13.736C22.5013 13.736 21.9467 13.8213 21.392 13.992C20.8373 14.1627 20.2613 14.376 19.664 14.632C19.152 14.888 18.7253 15.3573 18.384 16.04C18.0853 16.68 17.808 17.2987 17.552 17.896C17.3387 18.4933 17.0827 18.792 16.784 18.792C16.656 18.792 16.4853 18.6853 16.272 18.472C15.9733 18.1307 15.824 17.704 15.824 17.192C15.824 16.808 15.9093 16.424 16.08 16.04C16.2933 15.6133 16.528 15.208 16.784 14.824C17.2533 14.0987 17.808 13.608 18.448 13.352C19.088 13.096 19.8133 12.8613 20.624 12.648C21.264 12.52 21.9467 12.456 22.672 12.456C23.44 12.456 24.208 12.52 24.976 12.648C25.7013 11.7947 26.448 11.0907 27.216 10.536C27.984 9.98133 28.7093 9.704 29.392 9.704C30.2453 9.704 30.9707 10.0667 31.568 10.792C31.824 11.048 31.952 11.3467 31.952 11.688C31.952 11.9867 31.824 12.136 31.568 12.136C31.3547 12.136 31.12 11.9867 30.864 11.688C30.3947 11.2187 29.904 10.984 29.392 10.984C28.9227 10.984 28.432 11.176 27.92 11.56C27.408 11.944 26.9173 12.456 26.448 13.096C27.4293 13.4373 28.0907 13.8213 28.432 14.248C29.3707 15.3147 30.0747 16.424 30.544 17.576C31.056 18.6853 31.312 19.8587 31.312 21.096C31.312 22.12 31.12 23.2507 30.736 24.488C29.2427 29.1813 25.5947 31.528 19.792 31.528C19.664 31.528 19.536 31.528 19.408 31.528C19.28 31.4853 19.152 31.464 19.024 31.464C18.512 32.7867 17.9147 34.088 17.232 35.368C16.592 36.6053 15.8453 37.7573 14.992 38.824C16.3573 39.6347 17.7653 40.36 19.216 41C20.7093 41.64 22.3093 41.96 24.016 41.96C27.0453 41.96 29.8613 41.3413 32.464 40.104C35.0667 38.824 37.4347 37.3093 39.568 35.56C40.8053 34.536 41.68 33.128 42.192 31.336C42.704 29.5013 43.0027 27.5387 43.088 25.448ZM28.752 24.04C29.008 23.1867 29.136 22.376 29.136 21.608C29.136 20.3707 28.88 19.1973 28.368 18.088C27.8987 16.9787 27.3227 16.0827 26.64 15.4C26.256 15.016 25.872 14.696 25.488 14.44C24.5493 16.0187 23.696 17.8107 22.928 19.816C22.2027 21.7787 21.6693 23.4 21.328 24.68C21.1147 25.4907 20.8587 26.3653 20.56 27.304C20.2613 28.2427 19.92 29.2027 19.536 30.184C19.7493 30.184 19.9627 30.2053 20.176 30.248C20.3893 30.248 20.5813 30.248 20.752 30.248C23.1413 30.248 24.9333 29.672 26.128 28.52C27.3227 27.368 28.1973 25.8747 28.752 24.04ZM11.216 39.08C10.192 38.568 9.104 38.12 7.952 37.736C7.056 37.48 6.37333 37.352 5.904 37.352C5.392 37.352 5.072 37.5013 4.944 37.8C4.85867 38.056 4.816 38.376 4.816 38.76C4.816 39.3573 4.85867 39.7627 4.944 39.976C5.072 40.1893 5.24267 40.296 5.456 40.296C5.712 40.296 6.05333 40.232 6.48 40.104C6.94933 39.9333 7.48267 39.848 8.08 39.848C8.67733 39.848 9.232 39.784 9.744 39.656C10.2987 39.4853 10.7893 39.2933 11.216 39.08ZM62.7945 37.544C62.9652 37.3733 63.1998 37.288 63.4985 37.288C63.7972 37.288 63.9465 37.416 63.9465 37.672C63.9465 37.9707 63.6052 38.44 62.9225 39.08C62.2398 39.72 61.4932 40.232 60.6825 40.616C59.8718 41 59.1038 41.2773 58.3785 41.448C58.0372 41.4907 57.5678 41.3627 56.9705 41.064C56.4158 40.808 56.0745 40.5307 55.9465 40.232C55.7758 39.848 55.6478 39.4213 55.5625 38.952C55.4772 38.44 55.4345 37.9067 55.4345 37.352C55.4345 36.0293 55.5838 34.664 55.8825 33.256C56.1812 31.848 56.4585 30.632 56.7145 29.608C56.2025 29.7787 55.6265 29.864 54.9865 29.864C54.3892 29.864 53.8558 29.9067 53.3865 29.992C53.0878 30.4187 52.8318 30.9093 52.6185 31.464C52.4052 31.976 52.1065 32.552 51.7225 33.192C51.0398 34.3013 50.2718 35.4107 49.4185 36.52C48.6078 37.5867 47.7758 38.4613 46.9225 39.144C46.0692 39.8267 45.2372 40.168 44.4265 40.168C43.8718 40.168 43.5945 40.0187 43.5945 39.72C43.5945 39.4213 43.9572 39.144 44.6825 38.888C45.7065 38.504 46.7518 37.6933 47.8185 36.456C48.8852 35.2187 49.8452 33.9387 50.6985 32.616C51.1252 31.976 51.4025 31.4 51.5305 30.888C51.6585 30.3333 51.7225 29.9067 51.7225 29.608C51.7225 29.608 51.5305 29.3947 51.1465 28.968C50.8052 28.4987 50.6345 28.0507 50.6345 27.624C50.6345 26.6853 50.9332 25.832 51.5305 25.064C52.1705 24.296 52.8318 24.0187 53.5145 24.232C53.9838 24.36 54.2825 24.5733 54.4105 24.872C54.5812 25.1707 54.6665 25.4907 54.6665 25.832C54.6665 26.216 54.6025 26.6213 54.4745 27.048C54.3465 27.432 54.2185 27.7733 54.0905 28.072C54.2185 28.2427 54.4958 28.328 54.9225 28.328C55.5625 28.328 56.2665 28.2 57.0345 27.944C57.5892 27.1333 58.1225 26.4933 58.6345 26.024C59.1465 25.5547 59.6158 25.3627 60.0425 25.448C60.3412 25.4907 60.6185 25.5973 60.8745 25.768C61.1305 25.9387 61.2585 26.2587 61.2585 26.728C61.2585 27.112 61.0665 27.688 60.6825 28.456C60.0425 29.608 59.4452 30.8667 58.8905 32.232C58.3358 33.5547 57.9092 34.7707 57.6105 35.88C57.3118 36.9467 57.1838 37.6933 57.2265 38.12C57.3118 38.6747 57.4612 39.0373 57.6745 39.208C57.9305 39.3787 58.2078 39.464 58.5065 39.464C58.7198 39.464 58.9332 39.4427 59.1465 39.4C59.4025 39.3147 59.6372 39.2507 59.8505 39.208C60.4905 38.9947 61.0238 38.76 61.4505 38.504C61.8772 38.248 62.3252 37.928 62.7945 37.544ZM53.2585 26.728C53.2585 26.344 53.1305 26.0667 52.8745 25.896C52.8318 25.8533 52.7678 25.832 52.6825 25.832C52.4692 25.832 52.2772 25.9813 52.1065 26.28C51.9358 26.536 51.8505 26.792 51.8505 27.048C51.8505 27.2613 51.8718 27.5173 51.9145 27.816C51.9998 28.072 52.1492 28.136 52.3625 28.008C52.5758 27.88 52.7678 27.7093 52.9385 27.496C53.1518 27.2827 53.2585 27.0267 53.2585 26.728ZM127.253 39.528C126.399 40.7227 125.418 41.5547 124.309 42.024C123.242 42.536 122.239 42.792 121.301 42.792C120.405 42.792 119.658 42.6213 119.061 42.28C118.591 42.024 118.058 41.576 117.461 40.936C116.906 40.296 116.415 39.4853 115.989 38.504C115.605 37.5227 115.455 36.392 115.541 35.112C115.626 33.3627 115.818 31.4213 116.117 29.288C116.458 27.112 116.799 25.0213 117.141 23.016C117.525 21.0107 117.845 19.3253 118.101 17.96C118.399 16.5947 118.549 15.8267 118.549 15.656C118.549 14.3333 118.293 13.1173 117.781 12.008C117.269 10.8987 116.586 10.024 115.733 9.384C114.922 8.70133 114.069 8.424 113.173 8.552C112.319 8.63733 111.359 9.46933 110.293 11.048C109.269 12.584 108.309 14.6533 107.413 17.256C106.559 19.816 105.941 22.7173 105.557 25.96C105.13 29.544 104.789 32.808 104.533 35.752C104.277 38.696 104.085 40.8293 103.957 42.152C103.914 42.7493 103.509 43.24 102.741 43.624C102.015 44.0507 101.247 44.3493 100.437 44.52C99.6258 44.7333 99.0925 44.84 98.8365 44.84C98.4525 44.84 98.2605 44.5627 98.2605 44.008C98.2605 43.5813 98.3458 43.0693 98.5165 42.472C98.7298 41.9173 98.8792 41.4907 98.9645 41.192C99.8605 38.5467 100.479 36.0507 100.821 33.704C101.205 31.3147 101.397 29.032 101.397 26.856C101.397 24.5947 101.247 22.4613 100.949 20.456C100.65 18.408 100.287 16.4667 99.8605 14.632C99.0925 11.3467 97.6845 8.91467 95.6365 7.336C93.6312 5.75733 91.3698 4.968 88.8525 4.968C88.2125 4.968 87.5298 5.032 86.8045 5.16C85.1405 5.416 83.4978 5.97066 81.8765 6.824C80.2978 7.67733 78.9752 8.85067 77.9085 10.344C76.8845 11.7947 76.3725 13.6293 76.3725 15.848C76.3725 17.512 76.7565 19.4107 77.5245 21.544C77.9085 22.6107 78.5912 23.5707 79.5725 24.424C80.5965 25.2773 81.6845 25.96 82.8365 26.472C84.0312 26.9413 85.0552 27.176 85.9085 27.176C86.1218 27.176 86.3138 27.176 86.4845 27.176C86.6552 27.1333 86.8045 27.0907 86.9325 27.048C88.2978 26.5787 89.3218 25.7893 90.0045 24.68C90.6872 23.528 91.0285 22.3547 91.0285 21.16C91.0285 20.136 90.7938 19.176 90.3245 18.28C89.8552 17.384 89.1512 16.7013 88.2125 16.232C87.7858 16.0613 87.5725 15.784 87.5725 15.4C87.5725 14.9733 87.9138 14.76 88.5965 14.76C88.8098 14.76 89.0445 14.7813 89.3005 14.824C89.5992 14.8667 89.8978 14.9733 90.1965 15.144C91.0498 15.4853 91.8605 16.2533 92.6285 17.448C93.3965 18.6 93.7805 19.8373 93.7805 21.16C93.7805 22.312 93.5032 23.4427 92.9485 24.552C92.4365 25.6187 91.7965 26.5573 91.0285 27.368C90.3032 28.136 89.5992 28.648 88.9165 28.904C88.2338 29.16 87.4445 29.288 86.5485 29.288C85.2685 29.288 83.9245 28.9893 82.5165 28.392C81.1512 27.7947 79.8925 26.9413 78.7405 25.832C77.6312 24.7227 76.7992 23.4213 76.2445 21.928C75.8178 20.6907 75.4978 19.5387 75.2845 18.472C75.0712 17.3627 74.9645 16.3387 74.9645 15.4C74.9645 12.9253 75.5405 10.8987 76.6925 9.32C77.8445 7.69866 79.2738 6.44 80.9805 5.544C82.7298 4.60533 84.5005 3.96533 86.2925 3.624C86.8045 3.496 87.3165 3.41067 87.8285 3.368C88.3405 3.32533 88.8098 3.304 89.2365 3.304C91.2418 3.304 92.9912 3.752 94.4845 4.648C96.0205 5.50133 97.3432 6.632 98.4525 8.04C99.5618 9.40533 100.501 10.8987 101.269 12.52C102.037 14.1413 102.698 15.6987 103.253 17.192C103.423 17.8747 103.594 18.4507 103.765 18.92C103.978 19.3893 104.17 19.624 104.341 19.624C104.639 19.624 104.789 18.9627 104.789 17.64C104.831 16.488 105.173 15.272 105.812 13.992C106.453 12.6693 107.178 11.432 107.989 10.28C108.799 9.128 109.439 8.21067 109.909 7.528C110.506 6.97333 111.189 6.58933 111.957 6.376C112.725 6.16267 113.45 6.056 114.133 6.056C115.199 6.056 116.095 6.26933 116.821 6.696C117.887 7.42133 118.741 8.31733 119.381 9.384C120.021 10.4507 120.618 11.944 121.173 13.864C121.301 14.248 121.386 14.6533 121.429 15.08C121.471 15.464 121.493 15.8693 121.493 16.296C121.493 17.704 121.279 19.1547 120.853 20.648C120.426 22.1413 119.914 23.6347 119.317 25.128C118.762 26.6213 118.271 28.0507 117.845 29.416C117.418 30.7813 117.205 32.0187 117.205 33.128C117.205 35.5173 117.375 37.3093 117.717 38.504C118.101 39.6987 118.57 40.488 119.125 40.872C119.679 41.256 120.234 41.448 120.789 41.448C121.258 41.448 121.706 41.384 122.133 41.256C122.559 41.1707 122.922 41.1707 123.221 41.256C123.733 41.384 124.138 41.2773 124.437 40.936C124.778 40.5947 125.034 40.168 125.205 39.656C125.418 39.144 125.61 38.696 125.781 38.312C125.994 37.928 126.229 37.736 126.485 37.736C127.21 37.9493 127.573 38.2907 127.573 38.76C127.573 38.9307 127.466 39.1867 127.253 39.528ZM148.217 36.968C147.107 38.2907 146.147 39.208 145.337 39.72C144.526 40.232 143.822 40.488 143.225 40.488C142.457 40.488 141.795 40.1893 141.241 39.592C140.729 38.952 140.281 38.2693 139.897 37.544C139.555 36.8187 139.278 36.3067 139.065 36.008C138.254 36.7333 137.294 37.5013 136.185 38.312C135.075 39.08 134.158 39.464 133.433 39.464C132.067 39.464 131.001 39.1227 130.233 38.44C129.465 37.7147 129.081 36.6693 129.081 35.304C129.081 33.896 129.251 32.232 129.593 30.312C129.977 28.392 130.446 26.4933 131.001 24.616C131.555 22.696 132.089 21.096 132.601 19.816C132.729 19.432 132.985 19.112 133.369 18.856C133.795 18.6 134.222 18.472 134.649 18.472C135.161 18.472 135.502 18.6 135.673 18.856C135.843 19.112 135.929 19.4107 135.929 19.752C135.929 20.1787 135.843 20.6053 135.673 21.032C135.545 21.416 135.481 21.608 135.481 21.608C134.969 23.0587 134.371 24.5733 133.689 26.152C133.049 27.7307 132.451 29.5227 131.897 31.528C131.854 31.784 131.79 32.1467 131.705 32.616C131.662 33.0853 131.641 33.576 131.641 34.088C131.641 34.8133 131.726 35.496 131.897 36.136C132.11 36.7333 132.494 37.032 133.049 37.032C133.518 37.032 134.137 36.7547 134.905 36.2C135.715 35.6453 136.526 34.8773 137.337 33.896C138.147 32.9147 138.787 31.784 139.257 30.504C139.683 29.352 140.067 28.0933 140.409 26.728C140.75 25.3627 141.049 24.0827 141.305 22.888C141.603 21.6507 141.881 20.6907 142.137 20.008C142.265 19.7093 142.457 19.56 142.713 19.56C143.054 19.56 143.353 19.688 143.609 19.944C143.907 20.2 144.014 20.4347 143.929 20.648C143.758 21.0747 143.523 21.7787 143.225 22.76C142.926 23.7413 142.627 24.8293 142.329 26.024C142.03 27.2187 141.753 28.392 141.497 29.544C141.241 30.6533 141.027 31.592 140.857 32.36C140.686 33.128 140.601 33.5547 140.601 33.64C140.601 34.28 140.665 34.856 140.793 35.368C140.921 35.88 141.134 36.4347 141.433 37.032C141.646 37.3733 141.902 37.7573 142.201 38.184C142.542 38.568 142.883 38.76 143.225 38.76C144.035 38.76 144.803 38.4827 145.529 37.928C146.297 37.3307 146.873 36.7547 147.257 36.2C147.555 35.7307 147.833 35.496 148.089 35.496C148.345 35.496 148.473 35.7307 148.473 36.2C148.473 36.5413 148.387 36.7973 148.217 36.968ZM164.736 15.72C164.736 15.72 164.736 15.8693 164.736 16.168C164.778 16.4667 164.693 16.8293 164.48 17.256C164.266 17.6827 163.797 18.1093 163.072 18.536C162.816 18.7067 162.346 18.8347 161.664 18.92C160.981 19.0053 160.213 19.0693 159.36 19.112C158.89 20.3493 158.378 21.608 157.824 22.888C157.269 24.1253 156.693 25.2987 156.095 26.408C155.2 28.1147 154.432 29.3733 153.792 30.184C153.194 30.9947 152.725 31.6133 152.384 32.04C152.042 32.424 151.808 32.8933 151.68 33.448C151.637 33.704 151.594 33.9387 151.552 34.152C151.552 34.3653 151.552 34.5787 151.552 34.792C151.552 36.3707 152 37.5227 152.896 38.248C153.834 38.9733 154.73 39.336 155.584 39.336C156.565 39.336 157.546 38.9947 158.528 38.312C159.509 37.5867 160.32 36.9253 160.96 36.328C161.472 35.9013 161.856 35.688 162.112 35.688C162.282 35.688 162.368 35.7733 162.368 35.944C162.368 36.2427 162.133 36.712 161.664 37.352C161.408 37.6933 160.981 38.1627 160.384 38.76C159.786 39.3573 159.04 39.912 158.144 40.424C157.248 40.8933 156.245 41.128 155.135 41.128C152.917 41.128 151.424 40.616 150.656 39.592C149.93 38.568 149.568 36.8613 149.568 34.472C149.568 32.5947 149.76 30.2907 150.144 27.56C150.528 24.7867 151.125 21.864 151.936 18.792C151.722 18.792 151.509 18.792 151.296 18.792C151.082 18.7493 150.89 18.728 150.72 18.728C150.165 18.728 149.738 18.8133 149.44 18.984C149.184 19.112 148.97 19.176 148.799 19.176C148.373 19.176 148.16 18.856 148.16 18.216C148.16 17.4907 148.352 16.936 148.736 16.552C149.034 16.2533 149.546 16.104 150.272 16.104C150.826 16.104 151.573 16.2107 152.512 16.424C152.597 16.168 152.682 15.9333 152.768 15.72C152.853 15.5067 152.917 15.2933 152.96 15.08C153.045 14.6533 153.13 14.312 153.216 14.056C153.301 13.8 153.408 13.48 153.536 13.096C154.261 10.92 155.05 8.82933 155.904 6.824C156.757 4.81866 157.994 3.02666 159.616 1.448C159.914 0.978666 160.32 0.743999 160.832 0.743999C161.216 0.743999 161.557 0.914665 161.856 1.256C162.154 1.55466 162.282 1.91733 162.24 2.344C162.24 2.344 162.218 2.87733 162.176 3.944C162.133 5.01066 162.048 6.312 161.92 7.848C161.792 9.34133 161.6 10.7707 161.344 12.136C161.216 12.9467 161.024 13.8213 160.768 14.76C160.554 15.656 160.277 16.5733 159.936 17.512C160.192 17.5547 160.426 17.5973 160.64 17.64C160.896 17.64 161.13 17.64 161.344 17.64C161.984 17.64 162.474 17.5547 162.816 17.384C163.2 17.1707 163.413 16.9573 163.456 16.744C163.541 16.5307 163.583 16.424 163.583 16.424C163.583 15.5707 163.797 15.144 164.224 15.144C164.437 15.144 164.608 15.336 164.736 15.72ZM160.192 5.032C159.936 4.98933 159.53 5.48 158.976 6.504C158.421 7.528 157.824 8.872 157.184 10.536C156.544 12.2 155.925 13.9707 155.328 15.848C155.285 16.0187 155.242 16.1893 155.2 16.36C155.157 16.488 155.114 16.6373 155.072 16.808C155.37 16.8933 155.669 16.9573 155.968 17C156.266 17.0427 156.586 17.1067 156.928 17.192C157.098 17.2347 157.29 17.256 157.504 17.256C157.717 17.256 157.909 17.2987 158.08 17.384C158.25 16.9147 158.4 16.5093 158.528 16.168C158.656 15.784 158.784 15.4427 158.912 15.144C159.381 13.5653 159.765 11.944 160.064 10.28C160.362 8.616 160.512 7.31466 160.512 6.376C160.512 5.608 160.405 5.16 160.192 5.032ZM157.376 19.112H156.224C155.925 19.112 155.626 19.112 155.328 19.112C155.072 19.112 154.816 19.0907 154.56 19.048C154.176 20.6693 153.792 22.4187 153.408 24.296C153.066 26.1307 152.789 27.7733 152.576 29.224C153.088 28.6267 153.621 27.7733 154.176 26.664C154.73 25.5547 155.285 24.3387 155.84 23.016C156.394 21.6507 156.906 20.3493 157.376 19.112ZM174.71 15.144C174.411 15.144 174.112 15.1013 173.814 15.016C173.558 14.888 173.302 14.7387 173.046 14.568C172.491 14.312 172.214 13.7573 172.214 12.904C172.214 12.52 172.299 12.0933 172.47 11.624C172.683 11.1547 173.003 10.7067 173.43 10.28C173.728 9.98133 174.091 9.832 174.518 9.832C174.902 9.832 175.264 9.98133 175.606 10.28C175.776 10.4507 175.883 10.728 175.926 11.112C176.011 11.4533 176.054 11.8373 176.054 12.264C176.054 12.776 176.011 13.288 175.926 13.8C175.84 14.2693 175.691 14.6107 175.478 14.824C175.179 15.0373 174.923 15.144 174.71 15.144ZM168.182 40.296C166.603 40.296 165.515 39.9333 164.918 39.208C164.32 38.4827 164.022 37.608 164.022 36.584C164.022 36.1147 164.064 35.6453 164.15 35.176C164.235 34.7067 164.342 34.2373 164.47 33.768C164.043 34.536 163.382 35.432 162.486 36.456C161.59 37.4373 160.758 38.2267 159.989 38.824C159.819 38.952 159.648 39.016 159.477 39.016C159.221 39.016 159.093 38.8667 159.093 38.568C159.093 38.2267 159.221 37.928 159.477 37.672C161.27 35.7947 162.635 34.28 163.574 33.128C164.512 31.9333 165.238 30.9307 165.75 30.12C166.262 29.3093 166.752 28.5627 167.222 27.88C167.606 26.6427 167.947 25.448 168.246 24.296C168.587 23.1013 169.099 21.8853 169.782 20.648C169.995 20.264 170.422 20.072 171.062 20.072C171.488 20.072 171.872 20.1787 172.214 20.392C172.555 20.6053 172.726 20.968 172.726 21.48C172.726 21.736 172.662 22.0347 172.534 22.376C172.064 23.6987 171.552 24.8293 170.998 25.768C170.486 26.664 169.803 27.816 168.95 29.224C168.054 30.6747 167.328 32.0827 166.774 33.448C166.262 34.8133 166.006 35.9653 166.006 36.904C166.006 37.5013 166.134 37.992 166.39 38.376C166.688 38.76 167.115 38.952 167.67 38.952C168.864 38.9947 169.782 38.8027 170.422 38.376C171.062 37.9067 171.595 37.4587 172.022 37.032C172.576 36.4347 173.046 35.88 173.43 35.368C173.856 34.856 174.24 34.408 174.582 34.024C174.838 33.768 174.966 33.8107 174.966 34.152C174.966 34.3653 174.902 34.6427 174.774 34.984C174.688 35.3253 174.582 35.5813 174.454 35.752C174.027 36.3493 173.515 37.0107 172.918 37.736C172.363 38.4613 171.702 39.08 170.934 39.592C170.166 40.0613 169.248 40.296 168.182 40.296ZM194.394 36.008C194.522 35.88 194.693 35.816 194.906 35.816C195.205 35.816 195.354 35.9653 195.354 36.264C195.354 36.4347 195.247 36.6907 195.034 37.032C194.863 37.3733 194.479 37.7787 193.882 38.248C193.285 38.76 192.666 39.2293 192.026 39.656C191.429 40.0827 190.597 40.296 189.53 40.296C188.378 40.296 187.461 40.0827 186.778 39.656C186.138 39.2293 185.669 38.76 185.37 38.248C185.114 37.6933 184.943 37.2667 184.858 36.968C184.346 37.352 183.813 37.864 183.258 38.504C182.746 39.1013 181.999 39.656 181.018 40.168C180.037 40.6373 178.629 40.872 176.794 40.872C175.77 40.872 174.831 40.6373 173.978 40.168C173.167 39.656 172.762 38.568 172.762 36.904C172.762 36.4347 172.783 35.944 172.826 35.432C172.911 34.8773 173.039 34.28 173.21 33.64C173.722 31.6347 174.319 30.056 175.002 28.904C175.685 27.752 176.709 26.8987 178.074 26.344C178.927 26.0027 179.973 25.6827 181.21 25.384C182.447 25.0853 183.535 24.8293 184.474 24.616C184.773 24.5307 185.029 24.2533 185.242 23.784C185.498 23.272 185.775 22.8027 186.074 22.376C186.245 22.1627 186.437 21.992 186.65 21.864C186.863 21.6933 187.098 21.608 187.354 21.608C187.567 21.608 187.845 21.7147 188.186 21.928C188.485 22.1413 188.677 22.5467 188.762 23.144C188.89 23.7413 188.954 24.296 188.954 24.808C188.911 25.064 188.805 25.384 188.634 25.768C188.506 26.1093 188.399 26.4933 188.314 26.92C188.229 27.4747 188.015 28.264 187.674 29.288C187.333 30.312 187.162 31.1653 187.162 31.848C187.162 32.4453 187.119 33.192 187.034 34.088C186.949 34.9413 186.949 35.5387 187.034 35.88C187.503 36.904 188.165 37.5867 189.018 37.928C189.871 38.2267 190.618 38.312 191.258 38.184C191.727 38.0987 192.261 37.8213 192.858 37.352C193.455 36.8827 193.967 36.4347 194.394 36.008ZM184.026 28.712C183.941 28.3707 183.727 28.008 183.386 27.624C183.087 27.24 182.703 27.048 182.234 27.048C182.149 27.048 181.978 27.0907 181.722 27.176C180.997 27.432 180.229 27.9227 179.418 28.648C178.607 29.3307 177.903 30.2267 177.306 31.336C176.709 32.4453 176.367 33.7467 176.282 35.24C176.282 35.6667 176.41 36.2213 176.666 36.904C176.965 37.5867 177.349 38.1627 177.818 38.632C178.287 39.1013 178.757 39.2293 179.226 39.016C180.25 38.5893 181.103 37.992 181.786 37.224C182.511 36.4133 183.109 35.432 183.578 34.28C183.791 33.7253 183.941 33.1493 184.026 32.552C184.154 31.912 184.218 31.3147 184.218 30.76C184.218 30.248 184.197 29.8213 184.154 29.48C184.111 29.096 184.069 28.84 184.026 28.712ZM206.872 29.352C206.872 30.3333 206.786 31.0587 206.616 31.528C206.488 31.9973 206.296 32.3813 206.04 32.68C205.826 32.9787 205.592 33.32 205.336 33.704C205.08 34.088 204.866 34.664 204.696 35.432C204.568 36.1573 204.504 37.224 204.504 38.632C204.504 39.1867 204.717 39.6347 205.144 39.976C205.57 40.3173 206.061 40.488 206.616 40.488C206.872 40.488 207 40.5733 207 40.744C207 40.9573 206.829 41.2133 206.488 41.512C206.189 41.8533 205.912 42.024 205.656 42.024C204.717 42.024 204.034 41.6613 203.608 40.936C203.181 40.168 202.968 39.3573 202.968 38.504C202.968 37.096 203.01 35.9867 203.095 35.176C203.181 34.3227 203.266 33.5333 203.352 32.808C203.437 32.04 203.458 31.1013 203.416 29.992C203.373 29.224 203.266 28.6267 203.095 28.2C202.925 27.7307 202.477 27.496 201.752 27.496C201.368 27.496 201.09 27.56 200.92 27.688C200.792 27.816 200.621 28.0293 200.408 28.328C199.938 29.0107 199.533 29.9707 199.192 31.208C198.893 32.4027 198.637 33.6827 198.424 35.048C198.253 36.3707 198.082 37.5653 197.911 38.632C197.784 39.656 197.656 40.3387 197.528 40.68C197.4 40.9787 197.229 41.192 197.016 41.32C196.845 41.448 196.653 41.512 196.44 41.512C196.269 41.512 196.098 41.4693 195.928 41.384C195.8 41.3413 195.693 41.2987 195.608 41.256C195.394 41.128 195.288 40.9147 195.288 40.616C195.288 40.3173 195.352 39.976 195.48 39.592C195.65 39.1653 195.778 38.7813 195.864 38.44C195.949 38.0987 196.077 37.5013 196.248 36.648C196.461 35.752 196.674 34.8347 196.888 33.896C197.101 32.9147 197.272 32.0827 197.4 31.4C197.57 30.6747 197.656 30.312 197.656 30.312C197.442 30.312 197.229 30.3333 197.016 30.376C196.802 30.376 196.589 30.376 196.376 30.376C195.736 30.376 195.416 30.12 195.416 29.608C195.416 29.2667 195.544 28.7547 195.799 28.072C196.056 27.3893 196.525 26.4933 197.208 25.384C197.421 25.0427 197.848 24.616 198.488 24.104C199.128 23.592 199.661 23.3787 200.088 23.464C200.258 23.3787 200.408 23.336 200.536 23.336C200.664 23.336 200.77 23.336 200.856 23.336C201.325 23.336 201.581 23.5067 201.624 23.848C201.709 24.1467 201.73 24.4667 201.688 24.808C201.645 25.1067 201.666 25.2347 201.752 25.192C202.349 24.936 202.946 24.808 203.544 24.808C204.44 24.808 205.208 25.1707 205.848 25.896C206.53 26.5787 206.872 27.7307 206.872 29.352ZM223.747 29.352C223.747 30.3333 223.661 31.0587 223.491 31.528C223.363 31.9973 223.171 32.3813 222.915 32.68C222.701 32.9787 222.467 33.32 222.211 33.704C221.955 34.088 221.741 34.664 221.571 35.432C221.443 36.1573 221.379 37.224 221.379 38.632C221.379 39.1867 221.592 39.6347 222.019 39.976C222.445 40.3173 222.936 40.488 223.491 40.488C223.747 40.488 223.875 40.5733 223.875 40.744C223.875 40.9573 223.704 41.2133 223.363 41.512C223.064 41.8533 222.787 42.024 222.531 42.024C221.592 42.024 220.909 41.6613 220.483 40.936C220.056 40.168 219.843 39.3573 219.843 38.504C219.843 37.096 219.885 35.9867 219.97 35.176C220.056 34.3227 220.141 33.5333 220.227 32.808C220.312 32.04 220.333 31.1013 220.291 29.992C220.248 29.224 220.141 28.6267 219.97 28.2C219.8 27.7307 219.352 27.496 218.627 27.496C218.243 27.496 217.965 27.56 217.795 27.688C217.667 27.816 217.496 28.0293 217.283 28.328C216.813 29.0107 216.408 29.9707 216.067 31.208C215.768 32.4027 215.512 33.6827 215.299 35.048C215.128 36.3707 214.957 37.5653 214.786 38.632C214.659 39.656 214.531 40.3387 214.403 40.68C214.275 40.9787 214.104 41.192 213.891 41.32C213.72 41.448 213.528 41.512 213.315 41.512C213.144 41.512 212.973 41.4693 212.803 41.384C212.675 41.3413 212.568 41.2987 212.483 41.256C212.269 41.128 212.163 40.9147 212.163 40.616C212.163 40.3173 212.227 39.976 212.355 39.592C212.525 39.1653 212.653 38.7813 212.739 38.44C212.824 38.0987 212.952 37.5013 213.123 36.648C213.336 35.752 213.549 34.8347 213.763 33.896C213.976 32.9147 214.147 32.0827 214.275 31.4C214.445 30.6747 214.531 30.312 214.531 30.312C214.317 30.312 214.104 30.3333 213.891 30.376C213.677 30.376 213.464 30.376 213.251 30.376C212.611 30.376 212.291 30.12 212.291 29.608C212.291 29.2667 212.419 28.7547 212.674 28.072C212.931 27.3893 213.4 26.4933 214.083 25.384C214.296 25.0427 214.723 24.616 215.363 24.104C216.003 23.592 216.536 23.3787 216.963 23.464C217.133 23.3787 217.283 23.336 217.411 23.336C217.539 23.336 217.645 23.336 217.731 23.336C218.2 23.336 218.456 23.5067 218.499 23.848C218.584 24.1467 218.605 24.4667 218.562 24.808C218.52 25.1067 218.541 25.2347 218.627 25.192C219.224 24.936 219.821 24.808 220.419 24.808C221.315 24.808 222.083 25.1707 222.723 25.896C223.405 26.5787 223.747 27.7307 223.747 29.352ZM243.118 33.192C242.563 34.1307 241.859 35.1547 241.006 36.264C240.152 37.3307 239.256 38.248 238.318 39.016C237.422 39.784 236.568 40.168 235.758 40.168C234.435 40.168 233.39 40.104 232.622 39.976C231.896 39.8053 231.299 39.5707 230.83 39.272C230.019 38.7173 229.358 37.992 228.846 37.096C228.334 36.2 228.035 35.2827 227.95 34.344C227.907 34.088 227.886 33.832 227.886 33.576C227.886 33.32 227.886 33.0853 227.886 32.872C227.886 30.3547 228.376 28.136 229.358 26.216C230.339 24.296 231.726 23.144 233.518 22.76C234.072 22.6747 234.499 22.9093 234.798 23.464C235.096 23.976 235.246 24.68 235.246 25.576C235.246 26.9413 234.883 28.4133 234.158 29.992C233.859 30.632 233.539 31.2507 233.198 31.848C232.899 32.4027 232.643 32.8507 232.43 33.192C231.875 34.0027 231.448 34.5573 231.15 34.856C230.894 35.112 230.766 35.368 230.766 35.624C230.766 36.3067 231.192 36.968 232.046 37.608C232.899 38.248 234.222 38.568 236.014 38.568C236.696 38.568 237.4 38.2693 238.126 37.672C238.851 37.0747 239.555 36.328 240.238 35.432C240.963 34.536 241.603 33.64 242.158 32.744C242.414 32.3173 242.648 32.104 242.862 32.104C243.118 32.104 243.246 32.296 243.246 32.68C243.246 32.8507 243.203 33.0213 243.118 33.192ZM233.518 25.128C233.347 24.872 232.984 24.936 232.43 25.32C231.918 25.6613 231.448 26.472 231.022 27.752C230.723 28.6907 230.574 29.7787 230.574 31.016C230.574 31.3573 230.574 31.6987 230.574 32.04C230.616 32.3813 230.659 32.7227 230.702 33.064C231.427 31.8267 231.939 30.9093 232.238 30.312C232.579 29.672 232.835 29.0107 233.006 28.328C233.091 27.9867 233.219 27.56 233.39 27.048C233.603 26.536 233.71 26.088 233.71 25.704C233.71 25.448 233.646 25.256 233.518 25.128Z" fill="white"/>
</svg>
