<svg width="28" height="25" viewBox="0 0 28 25" fill="none" xmlns="http://www.w3.org/2000/svg">
<path d="M6.39428 2.73346C5.95601 2.25046 5.12304 2.20601 4.61826 2.63868L2.80889 4.18957C1.96281 4.91478 1.65177 5.94221 2.02143 6.84343C3.50591 10.4626 5.93627 13.8608 9.31476 16.7566C12.6933 19.6525 16.6578 21.7357 20.8802 23.0081C21.9316 23.3249 23.1303 23.0583 23.9763 22.3331L25.7857 20.7822C26.2905 20.3496 26.2386 19.6356 25.6751 19.2599L21.6393 16.5694C21.3514 16.3774 20.9766 16.3096 20.6228 16.3854L16.792 17.2063C15.7514 17.4293 14.6507 17.168 13.8923 16.5179L9.59327 12.833C8.83486 12.183 8.52998 11.2395 8.79011 10.3476L9.74783 7.06401C9.83628 6.76076 9.75716 6.43949 9.53326 6.19275L6.39428 2.73346ZM3.29835 1.50734C4.59705 0.394165 6.74012 0.508527 7.8677 1.75117L11.0067 5.21046C11.5827 5.84528 11.7863 6.67185 11.5587 7.45206L10.601 10.7357C10.4999 11.0823 10.6184 11.449 10.9132 11.7017L15.2122 15.3866C15.507 15.6392 15.9348 15.7408 16.3392 15.6542L20.1701 14.8333C21.0804 14.6382 22.0447 14.8127 22.7853 15.3064L26.8211 17.997C28.2709 18.9635 28.4043 20.8004 27.1056 21.9136L25.2963 23.4644C24.0017 24.574 22.0655 25.0612 20.2611 24.5175C15.7807 23.1673 11.5752 20.9568 7.99486 17.888C4.41454 14.8191 1.83566 11.2144 0.260467 7.3741C-0.373944 5.82741 0.194478 4.1678 1.48899 3.05822L3.29835 1.50734Z" fill="white"/>
</svg>
