<svg width="28" height="28" viewBox="0 0 38 38" fill="none" xmlns="http://www.w3.org/2000/svg">
<path d="M8.67795 3.15516C8.08315 2.39042 6.95269 2.32004 6.26763 3.0051L3.81207 5.46067C2.66381 6.60893 2.24169 8.23568 2.74337 9.66261C4.75802 15.3929 8.05636 20.7734 12.6415 25.3585C17.2266 29.9436 22.6071 33.242 28.3374 35.2566C29.7643 35.7583 31.3911 35.3362 32.5393 34.1879L34.9949 31.7324C35.68 31.0473 35.6096 29.9168 34.8448 29.3221L29.3676 25.062C28.977 24.7582 28.4683 24.6508 27.9881 24.7708L22.7891 26.0706C21.3769 26.4236 19.8831 26.0098 18.8538 24.9806L13.0194 19.1462C11.9902 18.1169 11.5764 16.6231 11.9294 15.2109L13.2292 10.0119C13.3492 9.53172 13.2419 9.02304 12.938 8.63237L8.67795 3.15516ZM4.47634 1.21381C6.23886 -0.548717 9.1473 -0.367643 10.6776 1.59988L14.9376 7.07709C15.7194 8.08221 15.9957 9.39095 15.6868 10.6263L14.3871 15.8253C14.2499 16.3742 14.4107 16.9548 14.8107 17.3549L20.6451 23.1893C21.0452 23.5893 21.6258 23.7502 22.1747 23.6129L27.3737 22.3132C28.609 22.0043 29.9178 22.2806 30.9229 23.0624L36.4001 27.3224C38.3676 28.8527 38.5487 31.7611 36.7862 33.5237L34.3306 35.9792C32.5738 37.7361 29.9461 38.5075 27.4972 37.6465C21.4167 35.5087 15.7092 32.0088 10.8502 27.1498C5.99116 22.2908 2.49125 16.5833 0.35349 10.5028C-0.507496 8.05392 0.263934 5.42621 2.02077 3.66937L4.47634 1.21381Z" fill="white"/>
</svg>
